<?xml version="1.0" encoding="utf-8"?>
<!-- Generator: Adobe Illustrator 19.1.0, SVG Export Plug-In . SVG Version: 6.00 Build 0)  -->
<svg version="1.0" id="Lager_1" xmlns="http://www.w3.org/2000/svg" xmlns:xlink="http://www.w3.org/1999/xlink" x="0px" y="0px"
	 viewBox="0 0 841.9 595.3" style="enable-background:new 0 0 841.9 595.3;" xml:space="preserve">
<g>
	<g>
		<g>
			<g>
				<path d="M90.5,358.8H79.8v5.8H90c1.6,0,2.7,0.4,3.2,1.3c0.6,0.9,0.9,2.6,0.9,5.1v3.7c0,2.5-0.3,4.2-0.9,5.1
					c-0.6,0.9-1.7,1.3-3.2,1.3H79.9c-1.6,0-2.7-0.4-3.2-1.3c-0.6-0.9-0.9-2.5-0.9-5V374l3.4-1.1v3.2h11.6v-6.3H80.5
					c-1.6,0-2.6-0.4-3.2-1.3c-0.6-0.9-0.9-2.6-0.9-5.1v-3c0-2.5,0.3-4.2,0.9-5.1c0.6-0.9,1.6-1.3,3.2-1.3h9.3c1.5,0,2.6,0.4,3.2,1.3
					c0.6,0.8,0.9,2.4,0.9,4.6v0.6l-3.4,1.3V358.8z"/>
				<path d="M101.8,360.5c0-2.5,0.3-4.2,0.9-5.1c0.6-0.9,1.6-1.3,3.2-1.3h12.1c1.6,0,2.6,0.4,3.2,1.3c0.6,0.9,0.9,2.6,0.9,5.1v14.2
					c0,2.5-0.3,4.2-0.9,5.1c-0.6,0.9-1.6,1.3-3.2,1.3h-12.1c-1.6,0-2.6-0.4-3.2-1.3c-0.6-0.9-0.9-2.6-0.9-5.1V360.5z M105.6,376
					h12.6v-17.1h-12.6V376z"/>
				<path d="M130.1,381v-26.9h3.1l7.8,16.3l7.6-16.3h3.1V381H148v-16.7c0-0.7,0-1.6,0.1-2.9c-0.4,1.4-0.7,2.3-1,2.8l-6.2,13.5h-0.8
					l-6.2-13.5c-0.4-1-0.8-1.9-1-2.8c0.1,1.1,0.1,2,0.1,2.9V381H130.1z"/>
				<path d="M159,381v-26.9h16.8v4.6h-13v6.1h7.6v4.6h-7.6v6.7H176v5.1H159z"/>
				<path d="M180.8,360.5c0-2.5,0.3-4.2,0.9-5.1c0.6-0.9,1.6-1.3,3.2-1.3H197c1.6,0,2.6,0.4,3.2,1.3c0.6,0.9,0.9,2.6,0.9,5.1v14.2
					c0,2.5-0.3,4.2-0.9,5.1c-0.6,0.9-1.6,1.3-3.2,1.3h-12.1c-1.6,0-2.6-0.4-3.2-1.3c-0.6-0.9-0.9-2.6-0.9-5.1V360.5z M184.6,376
					h12.6v-17.1h-12.6V376z"/>
				<path d="M205.9,381v-26.9h2.6l11.6,15.9c0.8,1.1,1.5,2.1,1.9,2.9c-0.1-2.5-0.2-4.1-0.2-4.6v-14.1h3.4V381h-2.6l-12.1-16.7
					c-0.5-0.7-1-1.4-1.4-2.2c0.1,1.7,0.2,3.2,0.2,4.3V381H205.9z"/>
				<path d="M229.8,381v-26.9h16.8v4.6h-13v6.1h7.6v4.6h-7.6v6.7h13.2v5.1H229.8z"/>
				<path d="M285.4,358.8h-10.8v5.8h10.3c1.6,0,2.7,0.4,3.2,1.3c0.6,0.9,0.9,2.6,0.9,5.1v3.7c0,2.5-0.3,4.2-0.9,5.1
					c-0.6,0.9-1.7,1.3-3.2,1.3h-10.2c-1.6,0-2.7-0.4-3.2-1.3c-0.6-0.9-0.9-2.5-0.9-5V374l3.4-1.1v3.2h11.6v-6.3h-10.2
					c-1.6,0-2.6-0.4-3.2-1.3c-0.6-0.9-0.9-2.6-0.9-5.1v-3c0-2.5,0.3-4.2,0.9-5.1c0.6-0.9,1.6-1.3,3.2-1.3h9.3c1.5,0,2.6,0.4,3.2,1.3
					c0.6,0.8,0.9,2.4,0.9,4.6v0.6l-3.4,1.3V358.8z"/>
				<path d="M313.7,381v-26.9h14.1c2.5,0,3.7,1.7,3.7,5.2v3.3c0,2.6-1,4.2-2.9,4.5c2,0.4,3,2.1,3,5.2v3.4c0,3.5-1.6,5.3-4.9,5.3
					H313.7z M326.2,358.5h-8.7v6.4h8.7c1.2,0,1.7-0.6,1.7-1.9v-2.6C328,359.1,327.4,358.5,326.2,358.5z M326.2,369.3h-8.7v6.8h8.7
					c0.6,0,1.1-0.1,1.3-0.4c0.3-0.3,0.5-1,0.5-2v-2c0-1-0.2-1.7-0.5-2C327.3,369.5,326.9,369.3,326.2,369.3z"/>
				<path d="M337.8,381v-26.9h16.8v4.6h-13v6.1h7.6v4.6h-7.6v6.7h13.2v5.1H337.8z"/>
				<path d="M374.8,358.8h-10.8v5.8h10.3c1.6,0,2.7,0.4,3.2,1.3c0.6,0.9,0.9,2.6,0.9,5.1v3.7c0,2.5-0.3,4.2-0.9,5.1
					c-0.6,0.9-1.7,1.3-3.2,1.3h-10.2c-1.6,0-2.7-0.4-3.2-1.3c-0.6-0.9-0.9-2.5-0.9-5V374l3.4-1.1v3.2h11.6v-6.3h-10.2
					c-1.6,0-2.6-0.4-3.2-1.3c-0.6-0.9-0.9-2.6-0.9-5.1v-3c0-2.5,0.3-4.2,0.9-5.1c0.6-0.9,1.6-1.3,3.2-1.3h9.3c1.5,0,2.6,0.4,3.2,1.3
					c0.6,0.8,0.9,2.4,0.9,4.6v0.6l-3.4,1.3V358.8z"/>
				<path d="M395.3,358.9V381h-3.8v-22.1h-7.6v-4.8h19v4.8H395.3z"/>
				<path d="M436.3,358.9H426V376h10.3v-5.8l3.8,1.3v3.2c0,2.5-0.3,4.2-0.9,5c-0.6,0.9-1.6,1.3-3.2,1.3h-9.8c-1.6,0-2.6-0.4-3.2-1.3
					c-0.6-0.9-0.9-2.6-0.9-5.1v-14.2c0-2.5,0.3-4.2,0.9-5.1c0.6-0.9,1.6-1.3,3.2-1.3h9.8c1.6,0,2.6,0.4,3.2,1.3
					c0.6,0.9,0.9,2.6,0.9,5.1v2.6l-3.8,1V358.9z"/>
				<path d="M448,381v-26.9h3.8V376h12.4v5.1H448z"/>
				<path d="M469.5,360.5c0-2.5,0.3-4.2,0.9-5.1c0.6-0.9,1.6-1.3,3.2-1.3h12.1c1.6,0,2.6,0.4,3.2,1.3c0.6,0.9,0.9,2.6,0.9,5.1v14.2
					c0,2.5-0.3,4.2-0.9,5.1c-0.6,0.9-1.6,1.3-3.2,1.3h-12.1c-1.6,0-2.6-0.4-3.2-1.3c-0.6-0.9-0.9-2.6-0.9-5.1V360.5z M473.3,376
					h12.6v-17.1h-12.6V376z"/>
				<path d="M505.4,358.9V381h-3.8v-22.1H494v-4.8h19v4.8H505.4z"/>
				<path d="M517.7,381v-26.9h3.8v10.5h12v-10.5h3.9V381h-3.9v-11.6h-12V381H517.7z"/>
				<path d="M544.5,381v-26.9h16.8v4.6h-13v6.1h7.6v4.6h-7.6v6.7h13.2v5.1H544.5z"/>
				<path d="M580.3,358.8h-10.8v5.8h10.3c1.6,0,2.7,0.4,3.2,1.3c0.6,0.9,0.9,2.6,0.9,5.1v3.7c0,2.5-0.3,4.2-0.9,5.1
					c-0.6,0.9-1.7,1.3-3.2,1.3h-10.2c-1.6,0-2.7-0.4-3.2-1.3c-0.6-0.9-0.9-2.5-0.9-5V374l3.4-1.1v3.2h11.6v-6.3h-10.2
					c-1.6,0-2.6-0.4-3.2-1.3c-0.6-0.9-0.9-2.6-0.9-5.1v-3c0-2.5,0.3-4.2,0.9-5.1c0.6-0.9,1.6-1.3,3.2-1.3h9.3c1.5,0,2.6,0.4,3.2,1.3
					c0.6,0.8,0.9,2.4,0.9,4.6v0.6l-3.4,1.3V358.8z"/>
				<path d="M610.8,381c-1.6,0-2.7-0.4-3.2-1.3c-0.6-0.9-0.9-2.6-0.9-5.1v-1.8c0-1.3,0.2-2.3,0.5-3c0.3-0.6,0.8-1.2,1.6-2l3.3-3.3
					c-0.9-1.3-1.4-2.6-1.4-4.1V359c0-1.9,0.3-3.2,1-3.9c0.6-0.7,1.6-1,3.1-1h3.3c1.5,0,2.6,0.3,3.2,1c0.6,0.8,0.9,2.2,0.9,4.4v1.6
					l-3,0.8v-3.6h-5.4v1.9l7.7,10.6l3.8-5.2l2.2,3.1l-3.8,5.2l5.2,7.2h-5l-2.7-3.7l-1.5,2.1c-0.5,0.7-1,1.1-1.4,1.4
					c-0.3,0.2-0.9,0.3-1.7,0.3H610.8z M609.9,376.3h7.6l1.5-2.1l-4.9-6.7l-4.2,4.3V376.3z"/>
				<path d="M652.9,381c-1.6,0-2.6-0.4-3.2-1.3c-0.6-0.9-0.9-2.5-0.9-5v-5.6l3.8-1.2v8.1h7.6v-21.9h3.8v20.6c0,2.5-0.3,4.2-0.9,5.1
					c-0.6,0.9-1.6,1.3-3.2,1.3H652.9z"/>
				<path d="M672.3,381v-26.9h16.8v4.6h-13v6.1h7.6v4.6h-7.6v6.7h13.2v5.1H672.3z"/>
				<path d="M693.9,381l9.3-26.9h3.7l9.4,26.9h-4.3l-2-5.9h-10.4l-1.9,5.9H693.9z M701.3,370.3h7.2l-3.5-10.9L701.3,370.3z"/>
				<path d="M721,381v-26.9h2.6l11.6,15.9c0.8,1.1,1.5,2.1,1.9,2.9c-0.1-2.5-0.2-4.1-0.2-4.6v-14.1h3.4V381h-2.6l-12.1-16.7
					c-0.5-0.7-1-1.4-1.4-2.2c0.1,1.7,0.2,3.2,0.2,4.3V381H721z"/>
				<path d="M761,358.8h-10.8v5.8h10.3c1.6,0,2.7,0.4,3.2,1.3c0.6,0.9,0.9,2.6,0.9,5.1v3.7c0,2.5-0.3,4.2-0.9,5.1
					c-0.6,0.9-1.7,1.3-3.2,1.3h-10.2c-1.6,0-2.7-0.4-3.2-1.3c-0.6-0.9-0.9-2.5-0.9-5V374l3.4-1.1v3.2h11.6v-6.3h-10.2
					c-1.6,0-2.6-0.4-3.2-1.3c-0.6-0.9-0.9-2.6-0.9-5.1v-3c0-2.5,0.3-4.2,0.9-5.1c0.6-0.9,1.6-1.3,3.2-1.3h9.3c1.5,0,2.6,0.4,3.2,1.3
					c0.6,0.8,0.9,2.4,0.9,4.6v0.6l-3.4,1.3V358.8z"/>
			</g>
			<rect x="608.4" y="278.3" width="12" height="67.7"/>
			<rect x="568.2" y="278.3" width="6.8" height="67.7"/>
			<rect x="659.2" y="278.3" width="8.1" height="67.7"/>
			<rect x="703.3" y="278.3" width="12.2" height="67.7"/>
			<rect x="749.9" y="278.3" width="9.8" height="67.7"/>
			<rect x="623.1" y="278.3" width="5.5" height="67.7"/>
			<rect x="578" y="278.3" width="5.5" height="67.7"/>
			<rect x="557.3" y="278.3" width="5.5" height="67.7"/>
			<rect x="545.8" y="278.3" width="5.5" height="67.7"/>
			<rect x="532.3" y="278.3" width="7.3" height="67.7"/>
			<rect x="519.4" y="278.3" width="9.1" height="67.7"/>
			<rect x="510.8" y="278.3" width="5.5" height="67.7"/>
			<rect x="503.9" y="278.3" width="5.5" height="67.7"/>
			<rect x="496" y="278.3" width="5.5" height="67.7"/>
			<rect x="484.1" y="278.3" width="5.5" height="67.7"/>
			<rect x="469.1" y="278.3" width="13.1" height="67.7"/>
			<rect x="459.1" y="278.3" width="4.6" height="67.7"/>
			<rect x="448.5" y="278.3" width="6.7" height="67.7"/>
			<rect x="436.2" y="278.3" width="4.7" height="67.7"/>
			<rect x="425.7" y="278.3" width="8.3" height="67.7"/>
			<rect x="398.2" y="278.3" width="5.2" height="67.7"/>
			<rect x="391.8" y="278.3" width="4.3" height="67.7"/>
			<rect x="384.5" y="278.3" width="4.3" height="67.7"/>
			<rect x="372.6" y="278.3" width="4.3" height="67.7"/>
			<rect x="361.3" y="278.3" width="8.5" height="67.7"/>
			<rect x="351.1" y="278.3" width="4.6" height="67.7"/>
			<rect x="340.5" y="278.3" width="4.6" height="67.7"/>
			<rect x="330.1" y="278.3" width="4.6" height="67.7"/>
			<rect x="321.8" y="278.3" width="4.6" height="67.7"/>
			<rect x="314.9" y="278.3" width="4.6" height="67.7"/>
			<rect x="284.5" y="278.3" width="4.6" height="67.7"/>
			<rect x="247" y="278.3" width="4.6" height="67.7"/>
			<rect x="236.7" y="278.3" width="4.6" height="67.7"/>
			<rect x="219.8" y="278.3" width="8.5" height="67.7"/>
			<rect x="209.5" y="278.3" width="4.1" height="67.7"/>
			<rect x="197.3" y="278.3" width="4.1" height="67.7"/>
			<rect x="172.7" y="278.3" width="4.1" height="67.7"/>
			<rect x="161.9" y="278.3" width="4.6" height="67.7"/>
			<rect x="150" y="278.3" width="4.6" height="67.7"/>
			<rect x="128" y="278.3" width="4.6" height="67.7"/>
			<rect x="115.1" y="278.3" width="4.6" height="67.7"/>
			<rect x="88.4" y="278.3" width="4.6" height="67.7"/>
			<rect x="100.9" y="278.3" width="11.8" height="67.7"/>
			<rect x="135.2" y="278.3" width="10.8" height="67.7"/>
			<rect x="273.9" y="278.3" width="8.5" height="67.7"/>
			<rect x="182.6" y="278.3" width="12.2" height="67.7"/>
			<rect x="78.2" y="278.3" width="7.8" height="67.7"/>
			<rect x="651.7" y="278.3" width="5.5" height="67.7"/>
			<rect x="675.1" y="278.3" width="5.5" height="67.7"/>
			<rect x="685.3" y="278.3" width="5.5" height="67.7"/>
			<rect x="723.5" y="278.3" width="5.5" height="67.7"/>
			<rect x="734.1" y="278.3" width="8.6" height="67.7"/>
			<rect x="761.2" y="278.3" width="5.5" height="67.7"/>
			<rect x="695.9" y="278.3" width="5.5" height="67.7"/>
			<polygon points="259.6,319.6 254.9,319.8 265.8,304.5 270.6,304.5 			"/>
		</g>
		<g>
			<path d="M127.3,225H87.5v34.6h39.8v-12.1h-20.8v-9.4h33.1v18.8c0,5.1-1,8.5-2.9,10.3c-1.9,1.8-5.5,2.6-10.7,2.6H88.4
				c-5.2,0-8.8-0.9-10.7-2.6c-1.9-1.8-2.9-5.2-2.9-10.3v-28.8c0-5.1,1-8.5,2.9-10.3c1.9-1.8,5.5-2.6,10.7-2.6h37.7
				c5.1,0,8.6,0.9,10.6,2.6c2,1.7,3,5,3,9.8v1.3l-12.4,2.2V225z"/>
			<path d="M166.6,269.9v-54.6h12.8v44.4h41v10.3H166.6z"/>
			<path d="M228.4,269.9l31-54.6h12.3l31.4,54.6h-14.3l-6.6-12h-34.7l-6.4,12H228.4z M252.9,248h23.9l-11.8-22.2L252.9,248z"/>
			<path d="M320.6,269.9v-54.6h35.1c10.1,0,17.8,2.4,23.2,7.1c5.4,4.7,8,11.4,8,19.9c0,5.4-1.2,10.4-3.7,14.8
				c-2.7,4.7-6.4,8-11.2,10.1c-4.4,1.8-10.9,2.8-19.6,2.8H320.6z M333.4,259.6h16.4c8.4,0,14.4-1.2,18.1-3.7c4-2.7,6-7.3,6-13.9
				c0-11.4-6-17-18-17h-22.5V259.6z"/>
			<path d="M451.3,269.9v-54.6h46.8c8.2,0,12.3,3.5,12.3,10.6v12.8c0,7.1-4.1,10.6-12.3,10.6h-7.2l25.2,20.6h-18.2l-22-20.6h-12.1
				v20.6H451.3z M492.4,224.6h-28.6v15.3h28.6c2,0,3.4-0.2,4.1-0.6c1.1-0.6,1.6-1.9,1.6-3.7v-6.6c0-1.8-0.5-3.1-1.6-3.7
				C495.8,224.8,494.4,224.6,492.4,224.6z"/>
			<path d="M525.7,269.9l31-54.6H569l31.4,54.6h-14.3l-6.6-12h-34.7l-6.4,12H525.7z M550.2,248h23.9l-11.8-22.2L550.2,248z"/>
			<path d="M669.2,225h-39.8v34.6h39.8v-12.1h-20.8v-9.4h33.1v18.8c0,5.1-1,8.5-2.9,10.3s-5.5,2.6-10.7,2.6h-37.7
				c-5.2,0-8.8-0.9-10.7-2.6c-1.9-1.8-2.9-5.2-2.9-10.3v-28.8c0-5.1,1-8.5,2.9-10.3c1.9-1.8,5.5-2.6,10.7-2.6H668
				c5.1,0,8.6,0.9,10.6,2.6c2,1.7,3,5,3,9.8v1.3l-12.4,2.2V225z"/>
			<path d="M755.7,224.7H720v11.8h34.1c5.2,0,8.8,0.9,10.7,2.6c1.9,1.8,2.9,5.2,2.9,10.3v7.5c0,5.1-1,8.5-2.9,10.3
				c-1.9,1.8-5.5,2.6-10.8,2.6h-33.8c-5.2,0-8.8-0.9-10.8-2.6s-2.9-5.2-2.9-10.3v-1.5l11.2-2.3v6.5h38.7v-12.5h-34
				c-5.2,0-8.8-0.9-10.7-2.6c-1.9-1.8-2.8-5.2-2.8-10.3v-6c0-5.1,0.9-8.5,2.9-10.3c1.9-1.8,5.5-2.6,10.7-2.6h31
				c5,0,8.5,0.8,10.5,2.5c2,1.7,3,4.8,3,9.4v1.2l-11.3,2.6V224.7z"/>
		</g>
	</g>
	<g>
		<path d="M808.8,399.6H33.7l3.5,3.5v-210l-3.5,3.5h775.2l-3.5-3.5v210L808.8,399.6z M808.8,189.6H33.7h-3.5v3.5v210v3.5h3.5h775.2
			h3.5v-3.5v-210v-3.5H808.8z"/>
	</g>
</g>
</svg>
