<?xml version="1.0" encoding="utf-8"?>
<!-- Generator: Adobe Illustrator 17.0.0, SVG Export Plug-In . SVG Version: 6.00 Build 0)  -->
<!DOCTYPE svg PUBLIC "-//W3C//DTD SVG 1.0//EN" "http://www.w3.org/TR/2001/REC-SVG-20010904/DTD/svg10.dtd">
<svg version="1.0" id="Lager_1" xmlns="http://www.w3.org/2000/svg" xmlns:xlink="http://www.w3.org/1999/xlink" x="0px" y="0px"
	 width="1700.803px" height="134.513px" viewBox="109.476 62.838 1700.803 134.513"
	 enable-background="new 109.476 62.838 1700.803 134.513" xml:space="preserve">
<g>
	<g>
		<path d="M238.343,86.893h-97.694v84.93h97.694v-29.701h-51.056v-23.073h81.248v46.147c0,12.518-2.455,20.864-7.118,25.283
			s-13.5,6.382-26.264,6.382h-92.294c-12.764,0-21.601-2.209-26.264-6.382c-4.664-4.418-7.118-12.764-7.118-25.283V94.503
			c0-12.518,2.455-20.864,7.118-25.283c4.664-4.418,13.5-6.382,26.264-6.382h92.539c12.519,0,21.11,2.209,26.019,6.382
			c4.909,4.173,7.364,12.273,7.364,24.055v3.191l-30.437,5.4L238.343,86.893L238.343,86.893z"/>
		<path d="M334.809,197.106V63.084h31.419v108.985h100.639v25.283L334.809,197.106L334.809,197.106z"/>
		<path d="M486.505,197.106l76.093-134.022h30.192l77.075,134.022h-35.101l-16.201-29.455h-85.175l-15.71,29.455H486.505z
			 M546.643,143.35h58.665l-28.964-54.492L546.643,143.35z"/>
		<path d="M712.82,197.106V63.084h86.157c24.792,0,43.692,5.891,56.947,17.428c13.255,11.537,19.637,27.983,19.637,48.847
			c0,13.255-2.946,25.528-9.082,36.328c-6.628,11.537-15.71,19.637-27.492,24.792c-10.8,4.418-26.755,6.873-48.11,6.873
			L712.82,197.106L712.82,197.106z M744.239,171.823h40.256c20.619,0,35.346-2.946,44.429-9.082
			c9.818-6.627,14.728-17.919,14.728-34.119c0-27.983-14.728-41.728-44.183-41.728h-55.229V171.823z"/>
		<path d="M1033.638,197.106V63.084h114.876c20.128,0,30.192,8.591,30.192,26.019v31.419c0,17.428-10.064,26.019-30.192,26.019
			h-17.673l61.856,50.565h-44.674l-54.002-50.565h-29.701v50.565L1033.638,197.106L1033.638,197.106z M1134.523,85.912h-70.202
			v37.556h70.202c4.909,0,8.346-0.491,10.064-1.473c2.7-1.473,3.927-4.664,3.927-9.082v-16.2c0-4.418-1.227-7.609-3.927-9.082
			C1142.869,86.402,1139.432,85.912,1134.523,85.912z"/>
		<path d="M1216.262,197.106l76.093-134.022h30.192l77.075,134.022h-35.101l-16.2-29.455h-85.175l-15.71,29.455H1216.262z
			 M1276.4,143.35h58.665l-28.964-54.492L1276.4,143.35z"/>
		<path d="M1568.499,86.893h-97.694v84.93h97.694v-29.701h-51.056v-23.073h81.248v46.147c0,12.518-2.455,20.864-7.118,25.283
			s-13.5,6.382-26.264,6.382h-92.539c-12.764,0-21.601-2.209-26.264-6.382c-4.664-4.418-7.118-12.764-7.118-25.283V94.503
			c0-12.518,2.455-20.864,7.118-25.283s13.5-6.382,26.264-6.382h92.784c12.519,0,21.11,2.209,26.019,6.382
			c4.909,4.173,7.364,12.273,7.364,24.055v3.191l-30.437,5.4L1568.499,86.893L1568.499,86.893z"/>
		<path d="M1780.823,86.157h-87.63v28.964h83.702c12.764,0,21.601,2.209,26.264,6.382c4.664,4.418,7.119,12.764,7.119,25.283v18.41
			c0,12.518-2.455,20.864-7.119,25.283s-13.5,6.382-26.51,6.382h-82.966c-12.764,0-21.601-2.209-26.51-6.382
			c-4.909-4.173-7.118-12.764-7.118-25.283v-3.682l27.492-5.646v15.955h94.994V141.14h-83.457c-12.764,0-21.601-2.209-26.264-6.382
			c-4.664-4.418-6.873-12.764-6.873-25.283V94.748c0-12.518,2.209-20.864,7.119-25.283c4.664-4.418,13.5-6.382,26.264-6.382h76.093
			c12.273,0,20.864,1.964,25.773,6.137c4.909,4.173,7.364,11.782,7.364,23.073v2.946l-27.737,6.382L1780.823,86.157L1780.823,86.157
			z"/>
	</g>
</g>
</svg>
