<?xml version="1.0" encoding="utf-8"?>
<!-- Generator: Adobe Illustrator 19.1.0, SVG Export Plug-In . SVG Version: 6.00 Build 0)  -->
<svg version="1.1" id="Lager_1" xmlns="http://www.w3.org/2000/svg" xmlns:xlink="http://www.w3.org/1999/xlink" x="0px" y="0px"
	 viewBox="85 505 782.2 217" style="enable-background:new 85 505 782.2 217;" xml:space="preserve">
<style type="text/css">
	.st0{fill:#FFFFFF;}
</style>
<g>
	<g>
		<path d="M863.6,715H88.5l3.5,3.5v-210l-3.5,3.5h775.2l-3.5-3.5v210L863.6,715z M863.6,505H88.5H85v3.5v210v3.5h3.5h775.2h3.5v-3.5
			v-210V505H863.6L863.6,505z"/>
	</g>
</g>
<rect x="92" y="512" class="st0" width="768.2" height="203"/>
<g>
	<g>
		<g>
			<path d="M145.3,674.2h-10.7v5.8h10.2c1.6,0,2.7,0.4,3.2,1.3c0.6,0.9,0.9,2.6,0.9,5.1v3.7c0,2.5-0.3,4.2-0.9,5.1s-1.7,1.3-3.2,1.3
				h-10.1c-1.6,0-2.7-0.4-3.2-1.3c-0.6-0.9-0.9-2.5-0.9-5v-0.8l3.4-1.1v3.2h11.6v-6.3h-10.3c-1.6,0-2.6-0.4-3.2-1.3
				c-0.6-0.9-0.9-2.6-0.9-5.1v-3c0-2.5,0.3-4.2,0.9-5.1c0.6-0.9,1.6-1.3,3.2-1.3h9.3c1.5,0,2.6,0.4,3.2,1.3c0.6,0.8,0.9,2.4,0.9,4.6
				v0.6l-3.4,1.3V674.2z"/>
			<path d="M156.6,675.9c0-2.5,0.3-4.2,0.9-5.1s1.6-1.3,3.2-1.3h12.1c1.6,0,2.6,0.4,3.2,1.3s0.9,2.6,0.9,5.1v14.2
				c0,2.5-0.3,4.2-0.9,5.1c-0.6,0.9-1.6,1.3-3.2,1.3h-12.1c-1.6,0-2.6-0.4-3.2-1.3c-0.6-0.9-0.9-2.6-0.9-5.1V675.9z M160.4,691.4
				H173v-17.1h-12.6V691.4z"/>
			<path d="M184.9,696.4v-26.9h3.1l7.8,16.3l7.6-16.3h3.1v26.9h-3.7v-16.7c0-0.7,0-1.6,0.1-2.9c-0.4,1.4-0.7,2.3-1,2.8l-6.2,13.5
				h-0.8l-6.2-13.5c-0.4-1-0.8-1.9-1-2.8c0.1,1.1,0.1,2,0.1,2.9v16.7C187.8,696.4,184.9,696.4,184.9,696.4z"/>
			<path d="M213.8,696.4v-26.9h16.8v4.6h-13v6.1h7.6v4.6h-7.6v6.7h13.2v5.1h-17V696.4L213.8,696.4z"/>
			<path d="M235.6,675.9c0-2.5,0.3-4.2,0.9-5.1s1.6-1.3,3.2-1.3h12.1c1.6,0,2.6,0.4,3.2,1.3s0.9,2.6,0.9,5.1v14.2
				c0,2.5-0.3,4.2-0.9,5.1c-0.6,0.9-1.6,1.3-3.2,1.3h-12.1c-1.6,0-2.6-0.4-3.2-1.3c-0.6-0.9-0.9-2.6-0.9-5.1V675.9z M239.4,691.4
				H252v-17.1h-12.6V691.4z"/>
			<path d="M260.7,696.4v-26.9h2.6l11.6,15.9c0.8,1.1,1.5,2.1,1.9,2.9c-0.1-2.5-0.2-4.1-0.2-4.6v-14.1h3.4v26.8h-2.6l-12.1-16.7
				c-0.5-0.7-1-1.4-1.4-2.2c0.1,1.7,0.2,3.2,0.2,4.3v14.6H260.7L260.7,696.4z"/>
			<path d="M284.6,696.4v-26.9h16.8v4.6h-13v6.1h7.6v4.6h-7.6v6.7h13.2v5.1h-17V696.4z"/>
			<path d="M340.2,674.2h-10.8v5.8h10.3c1.6,0,2.7,0.4,3.2,1.3c0.6,0.9,0.9,2.6,0.9,5.1v3.7c0,2.5-0.3,4.2-0.9,5.1s-1.7,1.3-3.2,1.3
				h-10.2c-1.6,0-2.7-0.4-3.2-1.3c-0.6-0.9-0.9-2.5-0.9-5v-0.8l3.4-1.1v3.2h11.6v-6.3h-10.2c-1.6,0-2.6-0.4-3.2-1.3
				c-0.6-0.9-0.9-2.6-0.9-5.1v-3c0-2.5,0.3-4.2,0.9-5.1c0.6-0.9,1.6-1.3,3.2-1.3h9.3c1.5,0,2.6,0.4,3.2,1.3c0.6,0.8,0.9,2.4,0.9,4.6
				v0.6l-3.4,1.3L340.2,674.2L340.2,674.2z"/>
			<path d="M368.5,696.4v-26.9h14.1c2.5,0,3.7,1.7,3.7,5.2v3.3c0,2.6-1,4.2-2.9,4.5c2,0.4,3,2.1,3,5.2v3.4c0,3.5-1.6,5.3-4.9,5.3
				H368.5z M381,673.9h-8.7v6.4h8.7c1.2,0,1.7-0.6,1.7-1.9v-2.6C382.8,674.5,382.2,673.9,381,673.9z M381,684.7h-8.7v6.8h8.7
				c0.6,0,1.1-0.1,1.3-0.4c0.3-0.3,0.5-1,0.5-2v-2c0-1-0.2-1.7-0.5-2C382.1,684.9,381.7,684.7,381,684.7z"/>
			<path d="M392.6,696.4v-26.9h16.8v4.6h-13v6.1h7.6v4.6h-7.6v6.7h13.2v5.1h-17V696.4z"/>
			<path d="M429.6,674.2h-10.8v5.8h10.3c1.6,0,2.7,0.4,3.2,1.3c0.6,0.9,0.9,2.6,0.9,5.1v3.7c0,2.5-0.3,4.2-0.9,5.1s-1.7,1.3-3.2,1.3
				h-10.2c-1.6,0-2.7-0.4-3.2-1.3c-0.6-0.9-0.9-2.5-0.9-5v-0.8l3.4-1.1v3.2h11.6v-6.3h-10.2c-1.6,0-2.6-0.4-3.2-1.3
				c-0.6-0.9-0.9-2.6-0.9-5.1v-3c0-2.5,0.3-4.2,0.9-5.1c0.6-0.9,1.6-1.3,3.2-1.3h9.3c1.5,0,2.6,0.4,3.2,1.3c0.6,0.8,0.9,2.4,0.9,4.6
				v0.6l-3.4,1.3L429.6,674.2L429.6,674.2z"/>
			<path d="M450.1,674.3v22.1h-3.8v-22.1h-7.6v-4.8h19v4.8H450.1z"/>
			<path d="M491.1,674.3h-10.3v17.1h10.3v-5.8l3.8,1.3v3.2c0,2.5-0.3,4.2-0.9,5c-0.6,0.9-1.6,1.3-3.2,1.3H481
				c-1.6,0-2.6-0.4-3.2-1.3c-0.6-0.9-0.9-2.6-0.9-5.1v-14.2c0-2.5,0.3-4.2,0.9-5.1c0.6-0.9,1.6-1.3,3.2-1.3h9.8
				c1.6,0,2.6,0.4,3.2,1.3c0.6,0.9,0.9,2.6,0.9,5.1v2.6l-3.8,1V674.3L491.1,674.3z"/>
			<path d="M502.8,696.4v-26.9h3.8v21.9H519v5.1L502.8,696.4L502.8,696.4z"/>
			<path d="M524.3,675.9c0-2.5,0.3-4.2,0.9-5.1c0.6-0.9,1.6-1.3,3.2-1.3h12.1c1.6,0,2.6,0.4,3.2,1.3c0.6,0.9,0.9,2.6,0.9,5.1v14.2
				c0,2.5-0.3,4.2-0.9,5.1c-0.6,0.9-1.6,1.3-3.2,1.3h-12.1c-1.6,0-2.6-0.4-3.2-1.3c-0.6-0.9-0.9-2.6-0.9-5.1V675.9z M528.1,691.4
				h12.6v-17.1h-12.6V691.4z"/>
			<path d="M560.2,674.3v22.1h-3.8v-22.1h-7.6v-4.8h19v4.8H560.2z"/>
			<path d="M572.5,696.4v-26.9h3.8V680h12v-10.5h3.9v26.9h-3.9v-11.6h-12v11.6H572.5z"/>
			<path d="M599.3,696.4v-26.9h16.8v4.6h-13v6.1h7.6v4.6h-7.6v6.7h13.2v5.1h-17V696.4z"/>
			<path d="M635.1,674.2h-10.8v5.8h10.3c1.6,0,2.7,0.4,3.2,1.3c0.6,0.9,0.9,2.6,0.9,5.1v3.7c0,2.5-0.3,4.2-0.9,5.1
				c-0.6,0.9-1.7,1.3-3.2,1.3h-10.2c-1.6,0-2.7-0.4-3.2-1.3c-0.6-0.9-0.9-2.5-0.9-5v-0.8l3.4-1.1v3.2h11.6v-6.3h-10.2
				c-1.6,0-2.6-0.4-3.2-1.3c-0.6-0.9-0.9-2.6-0.9-5.1v-3c0-2.5,0.3-4.2,0.9-5.1c0.6-0.9,1.6-1.3,3.2-1.3h9.3c1.5,0,2.6,0.4,3.2,1.3
				c0.6,0.8,0.9,2.4,0.9,4.6v0.6l-3.4,1.3L635.1,674.2L635.1,674.2z"/>
			<path d="M665.6,696.4c-1.6,0-2.7-0.4-3.2-1.3c-0.6-0.9-0.9-2.6-0.9-5.1v-1.8c0-1.3,0.2-2.3,0.5-3c0.3-0.6,0.8-1.2,1.6-2l3.3-3.3
				c-0.9-1.3-1.4-2.6-1.4-4.1v-1.4c0-1.9,0.3-3.2,1-3.9c0.6-0.7,1.6-1,3.1-1h3.3c1.5,0,2.6,0.3,3.2,1c0.6,0.8,0.9,2.2,0.9,4.4v1.6
				l-3,0.8v-3.6h-5.4v1.9l7.7,10.6l3.8-5.2l2.2,3.1l-3.8,5.2l5.2,7.2h-5l-2.7-3.7l-1.5,2.1c-0.5,0.7-1,1.1-1.4,1.4
				c-0.3,0.2-0.9,0.3-1.7,0.3h-5.8L665.6,696.4L665.6,696.4z M664.7,691.7h7.6l1.5-2.1l-4.9-6.7l-4.2,4.3L664.7,691.7L664.7,691.7z"
				/>
			<path d="M707.7,696.4c-1.6,0-2.6-0.4-3.2-1.3c-0.6-0.9-0.9-2.5-0.9-5v-5.6l3.8-1.2v8.1h7.6v-21.9h3.8v20.6c0,2.5-0.3,4.2-0.9,5.1
				c-0.6,0.9-1.6,1.3-3.2,1.3L707.7,696.4L707.7,696.4L707.7,696.4z"/>
			<path d="M727.1,696.4v-26.9h16.8v4.6h-13v6.1h7.6v4.6h-7.6v6.7h13.2v5.1h-17V696.4z"/>
			<path d="M748.7,696.4l9.3-26.9h3.7l9.4,26.9h-4.3l-2-5.9h-10.4l-1.9,5.9H748.7z M756.1,685.7h7.2l-3.5-10.9L756.1,685.7z"/>
			<path d="M775.8,696.4v-26.9h2.6l11.6,15.9c0.8,1.1,1.5,2.1,1.9,2.9c-0.1-2.5-0.2-4.1-0.2-4.6v-14.1h3.4v26.8h-2.6l-12.1-16.7
				c-0.5-0.7-1-1.4-1.4-2.2c0.1,1.7,0.2,3.2,0.2,4.3v14.6H775.8L775.8,696.4z"/>
			<path d="M815.8,674.2H805v5.8h10.3c1.6,0,2.7,0.4,3.2,1.3c0.6,0.9,0.9,2.6,0.9,5.1v3.7c0,2.5-0.3,4.2-0.9,5.1s-1.7,1.3-3.2,1.3
				h-10.2c-1.6,0-2.7-0.4-3.2-1.3c-0.6-0.9-0.9-2.5-0.9-5v-0.8l3.4-1.1v3.2H816v-6.3h-10.2c-1.6,0-2.6-0.4-3.2-1.3
				c-0.6-0.9-0.9-2.6-0.9-5.1v-3c0-2.5,0.3-4.2,0.9-5.1c0.6-0.9,1.6-1.3,3.2-1.3h9.3c1.5,0,2.6,0.4,3.2,1.3c0.6,0.8,0.9,2.4,0.9,4.6
				v0.6l-3.4,1.3V674.2L815.8,674.2z"/>
		</g>
		<rect x="663.2" y="593.7" width="12" height="67.7"/>
		<rect x="623" y="593.7" width="6.8" height="67.7"/>
		<rect x="714" y="593.7" width="8.1" height="67.7"/>
		<rect x="758.1" y="593.7" width="12.2" height="67.7"/>
		<rect x="804.7" y="593.7" width="9.8" height="67.7"/>
		<rect x="677.9" y="593.7" width="5.5" height="67.7"/>
		<rect x="632.8" y="593.7" width="5.5" height="67.7"/>
		<rect x="612.1" y="593.7" width="5.5" height="67.7"/>
		<rect x="600.6" y="593.7" width="5.5" height="67.7"/>
		<rect x="587.1" y="593.7" width="7.3" height="67.7"/>
		<rect x="574.2" y="593.7" width="9.1" height="67.7"/>
		<rect x="565.6" y="593.7" width="5.5" height="67.7"/>
		<rect x="558.7" y="593.7" width="5.5" height="67.7"/>
		<rect x="550.8" y="593.7" width="5.5" height="67.7"/>
		<rect x="538.9" y="593.7" width="5.5" height="67.7"/>
		<rect x="523.9" y="593.7" width="13.1" height="67.7"/>
		<rect x="513.9" y="593.7" width="4.6" height="67.7"/>
		<rect x="503.3" y="593.7" width="6.7" height="67.7"/>
		<rect x="491" y="593.7" width="4.7" height="67.7"/>
		<rect x="480.5" y="593.7" width="8.3" height="67.7"/>
		<rect x="453" y="593.7" width="5.2" height="67.7"/>
		<rect x="446.6" y="593.7" width="4.3" height="67.7"/>
		<rect x="439.3" y="593.7" width="4.3" height="67.7"/>
		<rect x="427.4" y="593.7" width="4.3" height="67.7"/>
		<rect x="416.1" y="593.7" width="8.5" height="67.7"/>
		<rect x="405.9" y="593.7" width="4.6" height="67.7"/>
		<rect x="395.3" y="593.7" width="4.6" height="67.7"/>
		<rect x="384.9" y="593.7" width="4.6" height="67.7"/>
		<rect x="376.6" y="593.7" width="4.6" height="67.7"/>
		<rect x="369.7" y="593.7" width="4.6" height="67.7"/>
		<rect x="339.3" y="593.7" width="4.6" height="67.7"/>
		<rect x="301.8" y="593.7" width="4.6" height="67.7"/>
		<rect x="291.5" y="593.7" width="4.6" height="67.7"/>
		<rect x="274.6" y="593.7" width="8.5" height="67.7"/>
		<rect x="264.3" y="593.7" width="4.1" height="67.7"/>
		<rect x="252.1" y="593.7" width="4.1" height="67.7"/>
		<rect x="227.5" y="593.7" width="4.1" height="67.7"/>
		<rect x="216.7" y="593.7" width="4.6" height="67.7"/>
		<rect x="204.8" y="593.7" width="4.6" height="67.7"/>
		<rect x="182.8" y="593.7" width="4.6" height="67.7"/>
		<rect x="169.9" y="593.7" width="4.6" height="67.7"/>
		<rect x="143.2" y="593.7" width="4.6" height="67.7"/>
		<rect x="155.7" y="593.7" width="11.8" height="67.7"/>
		<rect x="190" y="593.7" width="10.8" height="67.7"/>
		<rect x="328.7" y="593.7" width="8.5" height="67.7"/>
		<rect x="237.4" y="593.7" width="12.2" height="67.7"/>
		<rect x="133" y="593.7" width="7.8" height="67.7"/>
		<rect x="706.5" y="593.7" width="5.5" height="67.7"/>
		<rect x="729.9" y="593.7" width="5.5" height="67.7"/>
		<rect x="740.1" y="593.7" width="5.5" height="67.7"/>
		<rect x="778.3" y="593.7" width="5.5" height="67.7"/>
		<rect x="788.9" y="593.7" width="8.6" height="67.7"/>
		<rect x="816" y="593.7" width="5.5" height="67.7"/>
		<rect x="750.7" y="593.7" width="5.5" height="67.7"/>
		<polygon points="314.4,635 309.7,635.2 320.6,619.9 325.4,619.9 		"/>
	</g>
	<g>
		<path d="M182.1,540.4h-39.8V575h39.8v-12.1h-20.8v-9.4h33.1v18.8c0,5.1-1,8.5-2.9,10.3s-5.5,2.6-10.7,2.6h-37.6
			c-5.2,0-8.8-0.9-10.7-2.6c-1.9-1.8-2.9-5.2-2.9-10.3v-28.8c0-5.1,1-8.5,2.9-10.3s5.5-2.6,10.7-2.6h37.7c5.1,0,8.6,0.9,10.6,2.6
			s3,5,3,9.8v1.3l-12.4,2.2L182.1,540.4L182.1,540.4z"/>
		<path d="M221.4,585.3v-54.6h12.8v44.4h41v10.3L221.4,585.3L221.4,585.3z"/>
		<path d="M283.2,585.3l31-54.6h12.3l31.4,54.6h-14.3l-6.6-12h-34.7l-6.4,12H283.2z M307.7,563.4h23.9l-11.8-22.2L307.7,563.4z"/>
		<path d="M375.4,585.3v-54.6h35.1c10.1,0,17.8,2.4,23.2,7.1c5.4,4.7,8,11.4,8,19.9c0,5.4-1.2,10.4-3.7,14.8
			c-2.7,4.7-6.4,8-11.2,10.1c-4.4,1.8-10.9,2.8-19.6,2.8L375.4,585.3L375.4,585.3z M388.2,575h16.4c8.4,0,14.4-1.2,18.1-3.7
			c4-2.7,6-7.3,6-13.9c0-11.4-6-17-18-17h-22.5V575z"/>
		<path d="M506.1,585.3v-54.6h46.8c8.2,0,12.3,3.5,12.3,10.6v12.8c0,7.1-4.1,10.6-12.3,10.6h-7.2l25.2,20.6h-18.2l-22-20.6h-12.1
			v20.6L506.1,585.3L506.1,585.3z M547.2,540h-28.6v15.3h28.6c2,0,3.4-0.2,4.1-0.6c1.1-0.6,1.6-1.9,1.6-3.7v-6.6
			c0-1.8-0.5-3.1-1.6-3.7C550.6,540.2,549.2,540,547.2,540z"/>
		<path d="M580.5,585.3l31-54.6h12.3l31.4,54.6h-14.3l-6.6-12h-34.7l-6.4,12H580.5z M605,563.4h23.9l-11.8-22.2L605,563.4z"/>
		<path d="M724,540.4h-39.8V575H724v-12.1h-20.8v-9.4h33.1v18.8c0,5.1-1,8.5-2.9,10.3s-5.5,2.6-10.7,2.6H685
			c-5.2,0-8.8-0.9-10.7-2.6c-1.9-1.8-2.9-5.2-2.9-10.3v-28.8c0-5.1,1-8.5,2.9-10.3s5.5-2.6,10.7-2.6h37.8c5.1,0,8.6,0.9,10.6,2.6
			s3,5,3,9.8v1.3l-12.4,2.2L724,540.4L724,540.4z"/>
		<path d="M810.5,540.1h-35.7v11.8h34.1c5.2,0,8.8,0.9,10.7,2.6c1.9,1.8,2.9,5.2,2.9,10.3v7.5c0,5.1-1,8.5-2.9,10.3
			s-5.5,2.6-10.8,2.6H775c-5.2,0-8.8-0.9-10.8-2.6s-2.9-5.2-2.9-10.3v-1.5l11.2-2.3v6.5h38.7v-12.5h-34c-5.2,0-8.8-0.9-10.7-2.6
			c-1.9-1.8-2.8-5.2-2.8-10.3v-6c0-5.1,0.9-8.5,2.9-10.3c1.9-1.8,5.5-2.6,10.7-2.6h31c5,0,8.5,0.8,10.5,2.5s3,4.8,3,9.4v1.2
			l-11.3,2.6L810.5,540.1L810.5,540.1z"/>
	</g>
</g>
</svg>
