<?xml version="1.0" encoding="utf-8"?>
<svg version="1.1" xmlns="http://www.w3.org/2000/svg" xmlns:xlink="http://www.w3.org/1999/xlink" viewBox="0 0 350 47.2">
<g>
	<path d="M191.7,41.2V6H188v35.6c0,1.4-0.6,2.3-2.1,2.3c-1.5,0-2.1-0.9-2.1-2.3V30.8h-3.5v10.4c0,3.9,2.4,6.5,5.7,6.5
		C189.5,47.6,191.7,45.1,191.7,41.2"/>
	<polygon points="204.9,43.6 198.7,43.6 198.7,27.8 203.2,27.8 203.2,24.2 198.7,24.2 198.7,9.5 204.9,9.5 204.9,6 194.9,6 
		194.9,47.2 204.9,47.2 	"/>
	<path d="M211.2,35.2l1.9-19.1l1.5,19.1H211.2z M215.5,47.2h3.9L215.1,6h-3.9l-4.7,41.2h3.4l0.9-8.3h4.1L215.5,47.2z"/>
	<polygon points="231,33.9 230,27.5 225.3,6 221.6,6 221.6,47.2 225.1,47.2 225.1,19.6 226.4,25.9 231.8,47.2 234.6,47.2 234.6,6 
		231,6 	"/>
	<path d="M249.5,39.8c0-4.3-2-9.1-4.3-14.1c-2.5-5.3-4.1-8.5-4.1-13.3c0-2.3,1-3.3,2.6-3.3c1.4,0,2.1,1.2,2.1,3.7v5.9h3.5v-6
		c0-4.2-2.2-7-5.6-7c-4.4,0-6.2,3.4-6.2,8.1c0,4.3,2.7,10.5,4.7,14.6c2.2,4.7,3.7,8.5,3.7,12.6c0,2.3-0.7,3.6-2.7,3.6
		c-1.4,0-2.4-1.5-2.4-3.6v-5.7h-3.6v5.6c0,4.1,2.3,6.9,6.1,6.9C245.8,47.6,249.5,46.2,249.5,39.8"/>
	<polygon points="266.1,16.4 266.1,47.2 269.7,47.2 269.7,6 264.4,6 261.8,31.3 261.1,38.2 260.4,31.3 257.7,6 252.2,6 252.2,47.2 
		255.6,47.2 255.6,16.4 256.2,23.3 259.2,47.2 262.6,47.2 265.5,23.3 	"/>
	<path d="M276.7,35.1l1.9-19.1l1.5,19.1H276.7z M280.5,6h-3.9L272,47.2h3.4l0.9-8.3h4.1l0.7,8.3h3.9L280.5,6z"/>
	<polygon points="291,36.4 292.7,28.9 295.7,47.2 299.5,47.2 295.1,23.8 299.3,6 295.8,6 291,28.2 291,6 287.2,6 287.2,47.2 
		291,47.2 	"/>
	<polygon points="301.7,47.2 311.7,47.2 311.7,43.6 305.5,43.6 305.5,27.8 310,27.8 310,24.2 305.5,24.2 305.5,9.5 311.7,9.5 
		311.7,6 301.7,6 	"/>
	<path d="M321.9,22.6c0,1.7-0.9,2.7-2.1,2.7h-2.1V9.7h2.4c1.1,0,1.8,0.7,1.8,2.3V22.6L321.9,22.6z M325.8,43.6V32.4
		c0-2.4-0.7-4.3-2.7-5.1c1.9-0.9,2.5-2.7,2.5-5.2v-9.6c0-5.2-3.1-6.5-5.5-6.5H314v41.2h3.7V28.9h2.3c1.3,0,2.1,1.1,2.1,2.7v12
		c0,3.1,0.9,3.9,3.1,3.9h1.4v-2.3C325.9,45.2,325.8,44.7,325.8,43.6"/>
	<path d="M332.2,12.3c0-2.3,1-3.3,2.6-3.3c1.3,0,2.1,1.2,2.1,3.7v5.9h3.5v-6c0-4.2-2.2-7-5.6-7c-4.4,0-6.3,3.4-6.3,8.1
		c0,4.3,2.7,10.5,4.7,14.6c2.2,4.7,3.7,8.5,3.7,12.6c0,2.3-0.8,3.6-2.7,3.6c-1.5,0-2.5-1.5-2.5-3.6v-5.7h-3.5v5.6
		c0,4.1,2.3,6.9,6.1,6.9c2.5,0,6.1-1.5,6.1-7.9c0-4.3-1.9-9.1-4.3-14.1C333.7,20.3,332.2,17.1,332.2,12.3"/>
	<path d="M14.1,36.2c0,2-0.8,3.1-2.7,3.1H9.5V13.8h1.9c1.9,0,2.7,1.1,2.7,3.1V36.2z M12.1,6H0v41.2h12.1c6.9,0,11.5-3.7,11.5-10.3
		V17.1C23.6,10.4,18.9,6,12.1,6"/>
	<path d="M40,22.1c0,1.4-0.5,2-1.6,2H36V13.5h2.3c1.1,0,1.6,0.6,1.6,2V22.1z M50.4,47c-0.6-2-1.2-4.1-1.2-6.7v-7.5
		c0-2.2-1.5-4.3-4-5.5c2.5-1.2,3.9-3.4,3.9-5.5v-7.1C49.1,9,44.5,6,39.9,6H26.5v41.2h9.5V30.9h2.1c1.4,0,2.1,1.3,2.1,2.3v7.5
		c0,2.8,0.7,6.4,2.2,6.4h7.9L50.4,47L50.4,47z"/>
	<polygon points="99.2,38.8 88.6,38.8 88.6,29.6 95.5,29.6 95.5,22.5 88.6,22.5 88.6,14 99.2,14 99.2,6 79.1,6 79.1,47.2 99.2,47.2 
			"/>
	<polygon points="118.5,27.2 116.3,21.3 110.9,6 102.5,6 102.5,47.2 110.9,47.2 110.9,26.2 113.2,32 119,47.2 126.9,47.2 126.9,6 
		118.5,6 	"/>
	<rect x="130.7" y="6" width="9.5" height="41.2"/>
	<polygon points="161.6,22.1 160.6,29.4 159.7,22.1 156.7,6 144.2,6 144.2,47.2 152.7,47.2 152.7,19.4 154.2,29.6 157.1,47.2 
		163,47.2 166,29.6 167.7,19.4 167.7,47.2 176.8,47.2 176.8,6 164.5,6 	"/>
	<path d="M66.5,36.2c0,2-0.8,3.1-2.6,3.1H62V13.8h1.9c1.8,0,2.6,1.1,2.6,3.1V36.2z M64.6,6H52.5v33.5h6.9v7.7h5.1
		c6.9,0,11.5-3.7,11.5-10.3V17C76,10.4,71.4,6,64.6,6"/>
	<path d="M345.5,8.1c-2,0-3.6-1.6-3.6-3.6c0-2,1.6-3.6,3.6-3.6c2,0,3.6,1.6,3.6,3.6C349.1,6.5,347.5,8.1,345.5,8.1 M345.5,0
		C343,0,341,2,341,4.5c0,2.5,2,4.5,4.5,4.5c2.5,0,4.5-2,4.5-4.5S348,0,345.5,0"/>
	<path d="M346,4c-0.1,0.1-0.3,0.2-0.5,0.2H345V2.8h0.5c0.4,0,0.7,0.2,0.7,0.6C346.1,3.7,346.1,3.9,346,4 M347.1,6.5
		c0-0.1,0-0.3,0-0.6c0-0.1,0-0.2,0-0.4c0-0.1,0-0.2,0-0.3c0-0.3-0.1-0.5-0.2-0.6c-0.1-0.1-0.3-0.2-0.5-0.2l0,0
		c0.3-0.1,0.5-0.2,0.6-0.4c0.1-0.2,0.2-0.5,0.2-0.8c0-0.4-0.1-0.7-0.3-0.9c-0.2-0.2-0.5-0.3-0.9-0.3h-1.8v4.7h0.9v-2h0.5
		c0.2,0,0.3,0.1,0.4,0.2c0.1,0.1,0.1,0.2,0.1,0.4l0,0.9c0,0.1,0,0.2,0,0.3c0,0.1,0,0.2,0.1,0.2h1v0C347.2,6.7,347.1,6.6,347.1,6.5"
		/>
</g>
</svg>
