<svg version="1.1" id="svg-logo" xmlns="http://www.w3.org/2000/svg" xmlns:xlink="http://www.w3.org/1999/xlink" x="0px" y="0px" width="28em" height="20em" viewBox="0 0 200 100" enable-background="new 0 0 200 100" xml:space="preserve">
    <g>
        <path d="M41.211,83.841l0.533-1.473l0.589,1.473H41.211z M43.295,84.967l-1.246-3.317c-0.119,0.141-0.26,0.243-0.413,0.305
            c0.062,0.108-0.012,0.243-0.062,0.391l-0.339,0.924l-0.64,1.67c-0.175,0.441-0.227,0.555-0.73,0.691v0.084h1.552V85.63
            c-0.255-0.041-0.646-0.041-0.646-0.386c0-0.272,0.249-0.86,0.346-1.144h1.291c0.147,0.396,0.362,0.928,0.362,1.166
            c0,0.255-0.237,0.316-0.436,0.363v0.084h1.664V85.63C43.544,85.545,43.448,85.38,43.295,84.967"></path>
        <path d="M52.392,84.615l-0.124-2.06c-0.022-0.398,0.198-0.533,0.56-0.605v-0.086h-1.245l-0.012,0.09
            c0.125,0.086,0.045,0.368-0.096,0.68l-1.024,2.254l-1.076-2.4c-0.04-0.092-0.192-0.43-0.068-0.561l-0.005-0.062h-1.223v0.086
            c0.334,0.027,0.657,0.158,0.622,0.531l-0.073,0.771l-0.209,1.59c-0.08,0.458-0.13,0.703-0.634,0.786v0.086h1.58v-0.086
            c-0.685-0.113-0.69-0.367-0.68-0.588c0.04-0.877,0.085-1.506,0.176-2.372h0.012l1.341,3.046h0.063l1.443-3.176h0.011l0.153,2.474
            c0.028,0.499-0.249,0.55-0.685,0.616v0.086h1.862v-0.086C52.455,85.527,52.455,85.403,52.392,84.615"></path>
        <path d="M55.477,83.841l0.533-1.473l0.588,1.473H55.477z M57.561,84.967l-1.246-3.317c-0.119,0.141-0.26,0.243-0.412,0.305
            c0.062,0.108-0.012,0.243-0.063,0.391L55.5,83.269l-0.64,1.67c-0.176,0.441-0.226,0.555-0.731,0.691v0.084h1.552V85.63
            c-0.255-0.041-0.646-0.041-0.646-0.386c0-0.272,0.249-0.86,0.345-1.144h1.291c0.148,0.396,0.362,0.928,0.362,1.166
            c0,0.255-0.238,0.316-0.436,0.363v0.084h1.665V85.63C57.81,85.545,57.713,85.38,57.561,84.967"></path>
        <path d="M62.639,81.688l-0.057,0.051c-0.141,0.13-0.164,0.125-0.351,0.125h-2.593c-0.187,0-0.209,0.005-0.351-0.125l-0.057-0.051
            h-0.045l-0.079,1.059l0.079,0.018c0.198-0.702,0.51-0.73,1.16-0.73h0.34v2.615c0,0.703-0.034,0.889-0.793,0.98v0.084h2.084V85.63
            c-0.758-0.092-0.792-0.277-0.792-0.98v-2.615h0.34c0.65,0,0.962,0.028,1.16,0.73l0.08-0.018l-0.08-1.059H62.639z"></path>
        <path d="M67.62,81.688l-0.056,0.051c-0.142,0.13-0.165,0.125-0.352,0.125H64.62c-0.187,0-0.209,0.005-0.351-0.125l-0.057-0.051
            h-0.046l-0.078,1.059l0.078,0.018c0.199-0.702,0.51-0.73,1.161-0.73h0.34v2.615c0,0.703-0.034,0.889-0.793,0.98v0.084h2.084V85.63
            c-0.759-0.092-0.793-0.277-0.793-0.98v-2.615h0.34c0.65,0,0.963,0.028,1.16,0.73l0.08-0.018l-0.08-1.059H67.62z"></path>
        <path d="M71.198,85.577c-0.929,0-0.849-0.463-0.849-0.797v-0.929h0.588c0.425,0,0.736,0.005,0.81,0.504h0.084v-1.263h-0.084
            c-0.062,0.486-0.385,0.521-0.81,0.521h-0.588v-1.615h0.549c0.572,0,1.098,0.006,1.138,0.736h0.085l0.067-0.871h-3.04v0.086
            c0.679,0.089,0.685,0.26,0.702,0.843v1.992c-0.017,0.584-0.023,0.753-0.702,0.845v0.084h3.147c0.114-0.34,0.187-0.689,0.193-1.121
            h-0.085C72.262,85.306,71.911,85.577,71.198,85.577"></path>
        <path d="M75.211,83.777v-1.806c0.595-0.006,1.178,0.26,1.178,0.923C76.389,83.523,75.755,83.772,75.211,83.777 M76.298,83.743
            l-0.029-0.039c0.408-0.181,0.702-0.452,0.702-0.929c0-0.271-0.113-0.968-1.54-0.923l-1.381,0.045v0.08
            c0.633,0.057,0.662,0.187,0.662,1.053v1.755c-0.017,0.584-0.023,0.753-0.702,0.845v0.084h1.987V85.63
            c-0.775-0.108-0.787-0.221-0.787-0.845v-0.911c0.396,0.068,0.6-0.068,0.827,0.402c0.119,0.244,0.414,0.741,0.787,1.133
            c0.329,0.338,0.77,0.322,1.371,0.35l0.017-0.084C77.277,85.481,76.733,84.508,76.298,83.743"></path>
        <path d="M84.099,85.646c-1.019,0-1.483-1.121-1.483-1.998c0-0.764,0.391-1.715,1.364-1.715c0.866,0,1.449,0.951,1.466,1.952
            C85.446,84.694,85.033,85.646,84.099,85.646 M84.025,81.796c-1.183,0-2.066,0.781-2.066,1.987c0,1.224,0.877,1.999,2.072,1.999
            c1.189,0,2.072-0.775,2.072-1.992C86.103,82.782,85.474,81.796,84.025,81.796"></path>
        <path d="M87.625,81.95c0.679,0.09,0.685,0.26,0.701,0.843v1.993c-0.017,0.583-0.022,0.752-0.701,0.844v0.084h2.015V85.63
            c-0.787-0.119-0.815-0.238-0.815-0.844v-0.855h0.617c0.476,0,0.77-0.012,0.815,0.56h0.085v-1.38h-0.085
            c-0.046,0.537-0.339,0.582-0.815,0.582h-0.617v-1.691h0.515c0.594,0,1.07,0.027,1.104,0.758h0.084l0.091-0.895h-2.995V81.95z"></path>
        <path d="M96.824,85.556l-0.691-0.051c-0.084-0.271-0.084-0.572-0.084-0.855v-1.856c0-0.583,0.023-0.753,0.702-0.845v-0.084h-1.902
            v0.084c0.679,0.092,0.685,0.262,0.702,0.845v1.992c-0.018,0.583-0.023,0.753-0.702,0.845v0.084h3.165l0.323-1.053l-0.074-0.035
            C97.826,85.351,97.685,85.618,96.824,85.556"></path>
        <path d="M99.609,81.95c0.679,0.09,0.685,0.26,0.702,0.843v1.993c-0.018,0.583-0.023,0.752-0.702,0.844v0.084h1.902V85.63
            c-0.68-0.092-0.685-0.261-0.702-0.844v-1.993c0.018-0.583,0.022-0.753,0.702-0.843v-0.086h-1.902V81.95z"></path>
        <path d="M102.909,81.95c0.68,0.09,0.686,0.26,0.702,0.843v1.993c-0.017,0.583-0.022,0.752-0.702,0.844v0.084h2.016V85.63
            c-0.787-0.119-0.815-0.238-0.815-0.844v-0.855h0.617c0.477,0,0.77-0.012,0.815,0.56h0.085v-1.38h-0.085
            c-0.046,0.537-0.339,0.582-0.815,0.582h-0.617v-1.691h0.516c0.594,0,1.07,0.027,1.104,0.758h0.085l0.091-0.895h-2.995V81.95z"></path>
        <path d="M109.465,85.577c-0.929,0-0.85-0.463-0.85-0.797v-0.929h0.59c0.424,0,0.735,0.005,0.81,0.504h0.085v-1.263h-0.085
            c-0.063,0.486-0.386,0.521-0.81,0.521h-0.59v-1.615h0.55c0.571,0,1.099,0.006,1.138,0.736h0.084l0.068-0.871h-3.039v0.086
            c0.678,0.089,0.685,0.26,0.701,0.843v1.992c-0.017,0.584-0.023,0.753-0.701,0.845v0.084h3.146c0.113-0.34,0.188-0.689,0.193-1.121
            h-0.085C110.529,85.306,110.178,85.577,109.465,85.577"></path>
        <path d="M116.031,83.841l0.532-1.473l0.589,1.473H116.031z M118.115,84.967l-1.246-3.317c-0.118,0.141-0.261,0.243-0.412,0.305
            c0.061,0.108-0.013,0.243-0.063,0.391l-0.34,0.924l-0.64,1.67c-0.176,0.441-0.227,0.555-0.73,0.691v0.084h1.552V85.63
            c-0.255-0.041-0.646-0.041-0.646-0.386c0-0.272,0.248-0.86,0.346-1.144h1.291c0.146,0.396,0.361,0.928,0.361,1.166
            c0,0.255-0.238,0.316-0.436,0.363v0.084h1.664V85.63C118.364,85.545,118.268,85.38,118.115,84.967"></path>
        <path d="M122.808,81.95c0.64,0.112,0.787,0.271,0.792,0.809l0.029,2.066l-2.797-2.961h-0.935v0.086
            c0.72,0.156,0.81,0.379,0.81,0.944v0.849c0,1.285,0.029,1.807-0.735,1.887v0.084h1.692V85.63c-0.82-0.166-0.787-0.453-0.787-1.857
            v-1.043c0.957,1.03,1.965,2.021,2.87,3.092l0.074-0.017c-0.028-1.233-0.057-2.599,0.022-3.222c0.046-0.368,0.119-0.582,0.509-0.633
            v-0.086h-1.545V81.95z"></path>
        <path d="M127.727,85.585c-0.701,0-0.77-0.364-0.77-0.743v-2.876c1.229-0.005,2.299,0.561,2.299,1.919
            C129.256,85.177,128.379,85.585,127.727,85.585 M127.16,81.853l-1.37,0.045v0.08c0.646,0.091,0.651,0.261,0.669,0.844v1.965
            c-0.018,0.583-0.022,0.752-0.702,0.844v0.084l1.687,0.012c1.948,0.016,2.469-1.115,2.469-1.925
            C129.912,83.212,129.652,81.774,127.16,81.853"></path>
        <path d="M136.219,85.585c-0.703,0-0.771-0.364-0.771-0.743v-2.876c1.229-0.005,2.299,0.561,2.299,1.919
            C137.746,85.177,136.869,85.585,136.219,85.585 M135.652,81.853l-1.371,0.045v0.08c0.646,0.091,0.651,0.261,0.67,0.844v1.965
            c-0.019,0.583-0.023,0.752-0.703,0.844v0.084l1.688,0.012c1.947,0.016,2.468-1.115,2.468-1.925
            C138.403,83.212,138.143,81.774,135.652,81.853"></path>
        <path d="M142.07,85.577c-0.928,0-0.848-0.463-0.848-0.797v-0.929h0.588c0.425,0,0.736,0.005,0.811,0.504h0.084v-1.263h-0.084
            c-0.062,0.486-0.386,0.521-0.811,0.521h-0.588v-1.615h0.549c0.571,0,1.098,0.006,1.138,0.736h0.085l0.068-0.871h-3.041v0.086
            c0.68,0.089,0.686,0.26,0.702,0.843v1.992c-0.017,0.584-0.022,0.753-0.702,0.845v0.084h3.148c0.113-0.34,0.186-0.689,0.192-1.121
            h-0.085C143.137,85.306,142.785,85.577,142.07,85.577"></path>
        <path d="M147.715,81.95c0.641,0.112,0.787,0.271,0.793,0.809l0.028,2.066l-2.796-2.961h-0.935v0.086
            c0.718,0.156,0.81,0.379,0.81,0.944v0.849c0,1.285,0.028,1.807-0.736,1.887v0.084h1.693V85.63
            c-0.821-0.166-0.787-0.453-0.787-1.857v-1.043c0.957,1.03,1.964,2.021,2.87,3.092l0.073-0.017
            c-0.027-1.233-0.057-2.599,0.022-3.222c0.046-0.368,0.119-0.582,0.509-0.633v-0.086h-1.545V81.95z"></path>
        <path d="M150.67,81.95c0.68,0.09,0.686,0.26,0.703,0.843v1.993c-0.018,0.583-0.023,0.752-0.703,0.844v0.084h1.902V85.63
            c-0.68-0.092-0.685-0.261-0.702-0.844v-1.993c0.018-0.583,0.022-0.753,0.702-0.843v-0.086h-1.902V81.95z"></path>
        <path d="M158.573,84.615l-0.124-2.06c-0.023-0.398,0.197-0.533,0.56-0.605v-0.086h-1.245l-0.012,0.09
            c0.125,0.086,0.045,0.368-0.096,0.68l-1.025,2.254l-1.075-2.4c-0.04-0.092-0.192-0.43-0.068-0.561l-0.005-0.062h-1.223v0.086
            c0.334,0.027,0.656,0.158,0.621,0.531l-0.072,0.771l-0.211,1.59c-0.078,0.458-0.129,0.703-0.633,0.786v0.086h1.579v-0.086
            c-0.685-0.113-0.69-0.367-0.679-0.588c0.039-0.877,0.084-1.506,0.176-2.372h0.01l1.343,3.046h0.062l1.443-3.176h0.011l0.152,2.474
            c0.029,0.499-0.248,0.55-0.684,0.616v0.086h1.862v-0.086C158.635,85.527,158.635,85.403,158.573,84.615"></path>
        <polygon points="159.949,81.893 160.261,81.893 160.261,83.073 160.572,83.073 160.572,81.893 160.882,81.893 160.882,81.628
            159.949,81.628 	"></polygon>
        <polygon points="161.709,82.364 161.655,82.618 161.603,82.364 161.429,81.628 161.012,81.628 161.012,83.073 161.291,83.073
            161.291,82.05 161.359,82.378 161.525,83.073 161.757,83.073 161.93,82.378 162.002,82.05 162.002,83.073 162.295,83.073
            162.295,81.628 161.881,81.628 	"></polygon>
        <path d="M109.912,71.437V54.36h-1.779v17.27c0,0.679-0.291,1.132-1.002,1.132c-0.712,0-1.002-0.453-1.002-1.132v-5.238h-1.715
            v5.045c0,1.907,1.164,3.137,2.781,3.137S109.912,73.344,109.912,71.437"></path>
        <polygon points="116.325,72.632 113.285,72.632 113.285,64.936 115.484,64.936 115.484,63.222 113.285,63.222 113.285,56.075
            116.325,56.075 116.325,54.36 111.475,54.36 111.475,74.347 116.325,74.347 	"></polygon>
        <path d="M119.365,68.525l0.906-9.282l0.743,9.282H119.365z M121.467,74.347h1.877l-2.103-19.986h-1.876l-2.264,19.986h1.648
            l0.421-4.043h1.973L121.467,74.347z"></path>
        <polygon points="129.002,67.911 128.484,64.806 126.189,54.36 124.41,54.36 124.41,74.347 126.124,74.347 126.124,60.989
            126.739,64.03 129.358,74.347 130.717,74.347 130.717,54.36 129.002,54.36 	"></polygon>
        <path d="M137.961,70.757c0-2.103-0.971-4.431-2.102-6.855c-1.229-2.588-1.973-4.141-1.973-6.469c0-1.1,0.484-1.617,1.261-1.617
            c0.679,0,1.034,0.582,1.034,1.779v2.846h1.715v-2.91c0-2.037-1.067-3.396-2.717-3.396c-2.135,0-3.008,1.65-3.008,3.945
            c0,2.07,1.293,5.11,2.264,7.082c1.067,2.266,1.779,4.108,1.779,6.113c0,1.131-0.355,1.746-1.294,1.746
            c-0.68,0-1.165-0.744-1.165-1.746v-2.781h-1.746v2.717c0,2.005,1.1,3.363,2.976,3.363
            C136.182,74.573,137.961,73.862,137.961,70.757"></path>
        <polygon points="146.014,59.438 146.014,74.347 147.76,74.347 147.76,54.36 145.205,54.36 143.912,66.649 143.588,69.98
            143.265,66.649 141.939,54.36 139.286,54.36 139.286,74.347 140.904,74.347 140.904,59.438 141.228,62.769 142.683,74.347
            144.3,74.347 145.722,62.769 	"></polygon>
        <path d="M151.155,68.524l0.905-9.281l0.745,9.281H151.155z M153.031,54.36h-1.876l-2.264,19.986h1.649l0.42-4.043h1.974
            l0.323,4.043h1.875L153.031,54.36z"></path>
        <polygon points="158.076,69.14 158.918,65.485 160.373,74.347 162.217,74.347 160.082,62.995 162.151,54.36 160.438,54.36
            158.076,65.161 158.076,54.36 156.266,54.36 156.266,74.347 158.076,74.347 	"></polygon>
        <polygon points="163.316,74.347 168.166,74.347 168.166,72.632 165.127,72.632 165.127,64.935 167.326,64.935 167.326,63.222
            165.127,63.222 165.127,56.075 168.166,56.075 168.166,54.36 163.316,54.36 	"></polygon>
        <path d="M173.114,62.445c0,0.809-0.42,1.294-1.003,1.294h-1.033v-7.536h1.164c0.516,0,0.872,0.323,0.872,1.132V62.445z
             M174.99,72.601v-5.434c0-1.164-0.355-2.07-1.293-2.49c0.938-0.421,1.229-1.325,1.229-2.522v-4.657
            c0-2.521-1.488-3.137-2.652-3.137h-3.008v19.986h1.812v-8.861h1.099c0.614,0,1.034,0.518,1.034,1.326v5.82
            c0,1.488,0.454,1.877,1.488,1.877h0.68v-1.133C175.055,73.376,174.99,73.149,174.99,72.601"></path>
        <path d="M178.095,57.433c0-1.1,0.485-1.617,1.261-1.617c0.647,0,1.036,0.582,1.036,1.779v2.846h1.714v-2.91
            c0-2.038-1.067-3.396-2.717-3.396c-2.135,0-3.04,1.65-3.04,3.945c0,2.07,1.326,5.11,2.296,7.083
            c1.068,2.265,1.779,4.106,1.779,6.112c0,1.131-0.389,1.746-1.293,1.746c-0.713,0-1.197-0.743-1.197-1.746v-2.782h-1.714v2.718
            c0,2.005,1.099,3.363,2.976,3.363c1.196,0,2.942-0.713,2.942-3.816c0-2.103-0.938-4.431-2.103-6.856
            C178.807,61.313,178.095,59.761,178.095,57.433"></path>
        <path d="M23.682,69.043c0,0.97-0.388,1.52-1.293,1.52h-0.905V58.177h0.905c0.905,0,1.293,0.518,1.293,1.487V69.043z M22.712,54.36
            h-5.853v19.986h5.853c3.331,0,5.595-1.812,5.595-5.013v-9.605C28.307,56.527,26.043,54.36,22.712,54.36"></path>
        <path d="M36.263,62.187c0,0.68-0.259,0.97-0.776,0.97h-1.132v-5.174h1.132c0.518,0,0.776,0.29,0.776,0.971V62.187z M41.308,74.249
            c-0.291-0.969-0.583-1.973-0.583-3.233V67.36c0-1.066-0.743-2.102-1.94-2.684c1.197-0.582,1.875-1.648,1.875-2.652v-3.459
            c0-2.718-2.199-4.205-4.463-4.205H29.73v19.986h4.625v-7.891h1.035c0.679,0,1.003,0.614,1.003,1.132v3.654
            c0,1.358,0.355,3.104,1.067,3.104h3.849V74.249z"></path>
        <polygon points="65.013,70.271 59.872,70.271 59.872,65.81 63.234,65.81 63.234,62.381 59.872,62.381 59.872,58.241 65.013,58.241
            65.013,54.36 55.247,54.36 55.247,74.347 65.013,74.347 	"></polygon>
        <polygon points="74.392,64.645 73.292,61.799 70.672,54.36 66.598,54.36 66.598,74.347 70.672,74.347 70.672,64.159 71.805,67.005
            74.618,74.347 78.435,74.347 78.435,54.36 74.392,54.36 	"></polygon>
        <rect x="80.31" y="54.36" width="4.625" height="19.986"></rect>
        <polygon points="95.316,62.187 94.831,65.712 94.346,62.187 92.923,54.36 86.843,54.36 86.843,74.347 90.983,74.347 90.983,60.894
            91.694,65.81 93.085,74.347 95.962,74.347 97.451,65.81 98.259,60.894 98.259,74.347 102.689,74.347 102.689,54.36 96.707,54.36
            "></polygon>
        <path d="M49.134,69.043c0,0.97-0.389,1.52-1.261,1.52h-0.906V58.177h0.906c0.873,0,1.261,0.518,1.261,1.487V69.043z M48.196,54.36
            h-5.854v16.262h3.363v3.725h2.491c3.331,0,5.562-1.812,5.562-5.013v-9.605C53.759,56.527,51.527,54.36,48.196,54.36"></path>
        <path d="M184.559,55.396c-0.975,0-1.766-0.792-1.766-1.766c0-0.973,0.791-1.765,1.766-1.765c0.973,0,1.764,0.792,1.764,1.765
            C186.322,54.604,185.531,55.396,184.559,55.396 M184.559,51.45c-1.203,0-2.182,0.979-2.182,2.18c0,1.203,0.979,2.182,2.182,2.182
            c1.201,0,2.18-0.979,2.18-2.182C186.738,52.429,185.76,51.45,184.559,51.45"></path>
        <path d="M184.781,53.409c-0.061,0.053-0.145,0.078-0.256,0.078h-0.189v-0.654h0.216c0.212,0,0.317,0.105,0.317,0.314
            C184.869,53.271,184.84,53.357,184.781,53.409 M185.333,54.615c-0.009-0.063-0.015-0.155-0.019-0.276
            c-0.002-0.062-0.005-0.116-0.008-0.167c-0.002-0.05-0.004-0.096-0.008-0.138c-0.013-0.127-0.047-0.219-0.1-0.277
            c-0.053-0.057-0.137-0.094-0.25-0.111v-0.005c0.129-0.028,0.224-0.09,0.285-0.187c0.061-0.097,0.093-0.221,0.093-0.373
            c0-0.197-0.054-0.344-0.16-0.439c-0.104-0.098-0.253-0.145-0.444-0.145h-0.845v2.268h0.458v-0.959h0.244
            c0.096,0,0.163,0.025,0.203,0.076c0.041,0.051,0.062,0.12,0.067,0.209l0.013,0.436c0.002,0.044,0.006,0.088,0.013,0.129
            c0.006,0.041,0.021,0.077,0.044,0.109h0.496v-0.02C185.373,54.722,185.346,54.679,185.333,54.615"></path>
        <rect x="56.49" y="14.179" width="85.582" height="16.047"></rect>
    </g>
    </svg>