<?xml version="1.0" encoding="utf-8"?>
<svg version="1.1" xmlns="http://www.w3.org/2000/svg" xmlns:xlink="http://www.w3.org/1999/xlink" x="0px" y="0px" viewBox="0 0 85 19.3">
<path d="M7,5.7C6.5,5.3,5.8,5.1,4.9,4.8C4.1,4.6,3.7,4.4,3.4,4.2C3.1,4,3.1,3.9,3.1,3.6c0-.5,.3-.9,1.3-.9c0.8,0,1.4,.2,2,.7l0.1,.3l1.1-1L7.5,2.5c-.8-.7-1.7-1.1-3-1.1C3.7,1.4,2.9,1.6,2.4,2S1.5,3,1.5,3.7S1.7,5,2.2,5.3c0.5,.4,1.2,.6,2.1,.9C5,6.4,5.5,6.6,5.8,6.8s0.4,.4,.4,.6c0,.4-.1,.6-.4,.8C5.5,8.4,5.1,8.5,4.5,8.5c-.8,0-1.6-.4-2.2-.9L2.2,7.5l-1.1,1l0.1,.1C2,9.4,3.1,9.9,4.4,9.9c1.1,0,2-.2,2.6-.7s0.8-1.1,.8-1.9C7.9,6.6,7.6,6.1,7,5.7M18.6,8.4L14.2,8.4L14.2,6.1L17.4,6.1L17.4,4.7L14.2,4.7L14.2,3L18.6,3L18.6,1.5L12.6,1.5L12.6,9.8L18.6,9.8M25,1.5L23.4,1.5L23.4,9.8L23.5,9.8L29.4,9.8L29.4,8.4L25,8.4M39.9,8.4L35.5,8.4L35.5,6.1L38.7,6.1L38.7,4.7L35.5,4.7L35.5,3L39.9,3L39.9,1.5L33.9,1.5L33.9,9.8L39.9,9.8M49.6,7.5c-.4,.6-.9,.9-1.8,.9c-1.5,0-2.2-1-2.2-2.8s0.8-2.8,2.2-2.8c0.9,0,1.3,.3,1.7,.9l0.1,.1L51,3l-.1-.1c-.6-1-1.6-1.6-3.1-1.6c-1.2,0-2.1,.4-2.8,1.2c-.7,.8-1,1.8-1,3.1c0,1.2,.4,2.3,1,3.1c0.7,.8,1.7,1.2,2.8,1.2l0,0c1.4,0,2.5-.6,3.1-1.6L51,8.2l-1.3-.8L49.6,7.5M54.9,3L57.4,3L57.4,9.8L59,9.8L59,3L61.6,3L61.6,1.5L54.9,1.5M72.1,8.4L67.7,8.4L67.7,6.1L70.9,6.1L70.9,4.7L67.7,4.7L67.7,3L72.1,3L72.1,1.5L66.1,1.5L66.1,9.8L72.1,9.8M82.6,2.5c-.8-.7-1.9-1-3.1-1H77v8.3h2.5c1.2,0,2.3-.3,3.1-1c0.8-.7,1.3-1.7,1.3-3.2C83.9,4.2,83.4,3.2,82.6,2.5M79.4,8.4h-1V3h1c2,0,2.8,1.1,2.8,2.7C82.2,7.3,81.5,8.4,79.4,8.4M13,14.8v1h1.3v0.3H13v1.5h-.4v-3.2h2.2v0.3L13,14.8L13,14.8M19.6,17.3L17.7,17.3L17.7,16.1L19.1,16.1L19.1,15.7L17.7,15.7L17.7,14.8L19.6,14.8L19.6,14.4L17.3,14.4L17.3,17.6L19.6,17.6M25.1,17.6v-2.1v-.3c0,.1-.1,.4-.2,.5l-1,2l-1-2c-.1-.2-.2-.4-.2-.5v0.3v2.1h-.4v-3.2h0.5l0.9,1.9c0.1,.2,.2,.5,.3,.6c0-.1,.2-.4,.3-.6l0.9-1.9h0.3v3.2H25.1M31.1,17.6v-2.1v-.3c0,.1-.1,.4-.2,.5l-1,2l-1-2c-.1-.2-.2-.4-.2-.5v0.3v2.1h-.4v-3.2h0.5l0.9,1.9c0.1,.2,.2,.5,.3,.6c0-.1,.2-.4,.3-.6l0.9-1.9h0.3v3.2H31.1M36.6,17.3L34.7,17.3L34.7,16.1L36.1,16.1L36.1,15.7L34.7,15.7L34.7,14.8L36.6,14.8L36.6,14.4L34.3,14.4L34.3,17.6L36.6,17.6M41.1,18h-.4l1.6-4h0.4L41.1,18M49.2,17.6v-1.5h-1.8v1.5H47v-3.2h0.4v1.3h1.8v-1.3h0.4v3.2H49.2M53.7,17.6c-.9,0-1.5-.7-1.5-1.6s0.6-1.6,1.5-1.6s1.5,.7,1.5,1.6C55.2,17,54.6,17.6,53.7,17.6M53.7,14.7c-.6,0-1.1,.5-1.1,1.3s0.5,1.3,1.1,1.3s1.1-.5,1.1-1.3S54.3,14.7,53.7,14.7M60.6,17.6v-2.1v-.3c0,.1-.1,.4-.2,.5l-1,2l-1-2c-.1-.2-.2-.4-.2-.5v0.3v2.1h-.4v-3.2h0.5l0.9,1.9c0.1,.2,.2,.5,.3,.6c0-.1,.2-.4,.3-.6l0.9-1.9h0.4v3.2H60.6M66.6,17.6v-2.1v-.3c0,.1-.1,.4-.2,.5l-1,2l-1-2c-.1-.2-.2-.4-.2-.5v0.3v2.1h-.4v-3.2h0.5l0.9,1.9c0.1,.2,.2,.5,.3,.6c0-.1,.2-.4,.3-.6l0.9-1.9h0.4v3.2H66.6M72.1,17.3L70.2,17.3L70.2,16.1L71.6,16.1L71.6,15.7L70.2,15.7L70.2,14.8L72.1,14.8L72.1,14.4L69.8,14.4L69.8,17.6L72.1,17.6"/>
</svg>